<?xml version="1.0" standalone="no"?>
<!DOCTYPE svg PUBLIC "-//W3C//DTD SVG 20010904//EN"
 "http://www.w3.org/TR/2001/REC-SVG-20010904/DTD/svg10.dtd">
<svg version="1.0" xmlns="http://www.w3.org/2000/svg"
 width="85.000000pt" height="85.000000pt" viewBox="0 0 85.000000 85.000000"
 preserveAspectRatio="xMidYMid meet">
<metadata>
Created by potrace 1.11, written by Peter Selinger 2001-2013
</metadata>
<g transform="translate(0.000000,85.000000) scale(0.100000,-0.100000)"
fill="#000000" stroke="none">
<path d="M0 425 l0 -425 425 0 425 0 0 425 0 425 -425 0 -425 0 0 -425z m167
78 l42 -48 1 48 c0 46 1 47 30 47 l30 0 0 -130 0 -130 -29 0 c-29 0 -30 2 -33
51 l-3 51 -40 -50 c-33 -43 -46 -51 -72 -52 -18 0 -33 3 -33 6 0 4 23 33 51
65 l51 59 -26 33 c-14 17 -38 47 -52 65 l-27 32 34 0 c27 0 41 -9 76 -47z
m609 14 c30 -36 30 -68 0 -103 l-23 -28 28 -48 28 -48 -32 0 c-28 0 -36 6 -57
45 -14 25 -30 45 -37 45 -9 0 -13 -15 -13 -45 0 -43 -1 -45 -30 -45 l-30 0 0
131 0 131 71 -4 c63 -3 74 -7 95 -31z m-331 -83 l50 -75 3 76 c4 106 22 94 22
-15 0 -51 -4 -90 -10 -90 -5 0 -33 35 -62 78 l-53 77 -6 -80 -5 -80 -2 93 c-1
50 1 92 6 92 4 0 30 -34 57 -76z"/>
<path d="M670 464 c0 -32 2 -35 26 -32 56 6 53 68 -2 68 -21 0 -24 -5 -24 -36z"/>
</g>
</svg>
