<?xml version="1.0" standalone="no"?>
<!DOCTYPE svg PUBLIC "-//W3C//DTD SVG 20010904//EN"
 "http://www.w3.org/TR/2001/REC-SVG-20010904/DTD/svg10.dtd">
<svg version="1.0" xmlns="http://www.w3.org/2000/svg"
 width="76.000000pt" height="76.000000pt" viewBox="0 0 76.000000 76.000000"
 preserveAspectRatio="xMidYMid meet">
<metadata>
Created by potrace 1.11, written by Peter Selinger 2001-2013
</metadata>
<g transform="translate(0.000000,76.000000) scale(0.100000,-0.100000)"
fill="#000000" stroke="none">
<path d="M16 498 c4 -7 27 -36 51 -65 l44 -51 -56 -66 -56 -66 40 0 c35 0 43
5 80 51 l41 52 0 -52 0 -52 32 3 32 3 0 125 1 125 -33 3 -32 3 0 -48 -1 -48
-40 48 c-34 39 -47 47 -76 47 -25 0 -32 -3 -27 -12z"/>
<path d="M560 380 l0 -130 30 0 c29 0 30 2 30 45 0 30 4 45 13 45 7 0 23 -20
35 -45 20 -41 25 -45 57 -45 l36 0 -28 50 -28 49 23 21 c14 13 22 32 22 53 -1
61 -40 87 -129 87 l-61 0 0 -130z m118 68 c7 -7 12 -15 12 -19 0 -15 -32 -39
-51 -39 -15 0 -19 7 -19 35 0 30 3 35 23 35 13 0 28 -5 35 -12z"/>
<path d="M329 468 c-7 -16 -2 -177 6 -175 5 2 9 36 9 75 1 39 3 68 7 64 3 -4
27 -37 53 -74 26 -38 51 -68 57 -68 5 0 9 40 9 90 0 53 -4 90 -10 90 -6 0 -10
-33 -10 -77 l0 -78 -51 78 c-44 65 -65 87 -70 75z"/>
</g>
</svg>
