<?xml version="1.0" encoding="utf-8"?>
<!-- Generator: Adobe Illustrator 17.1.0, SVG Export Plug-In . SVG Version: 6.00 Build 0)  -->
<!DOCTYPE svg PUBLIC "-//W3C//DTD SVG 1.1//EN" "http://www.w3.org/Graphics/SVG/1.1/DTD/svg11.dtd">
<svg version="1.1" id="Layer_1" xmlns="http://www.w3.org/2000/svg" xmlns:xlink="http://www.w3.org/1999/xlink" x="0px" y="0px"
	 viewBox="7.5 1.9 136 34.2" enable-background="new 7.5 1.9 136 34.2" xml:space="preserve">
<path fill="#000" d="M36,26.4l0.8,0.2L34,35.1H9.3v-0.9h1.2c1.4,0,2.1-0.4,2.7-1.3c0.3-0.5,0.5-1.7,0.5-3.5V8.1
	c0-2-0.2-3.3-0.7-3.8c-0.6-0.7-1.5-1.1-2.8-1.1H9.1V2.4h14.3v0.8c-1.7,0-2.8,0.1-3.5,0.5c-0.7,0.3-1.1,0.8-1.4,1.3
	c-0.3,0.5-0.4,1.7-0.4,3.6v21c0,1.3,0.1,2.3,0.4,2.8c0.2,0.3,0.5,0.6,0.9,0.8c0.4,0.2,2,0.2,4.1,0.2h2c2.5,0,4.2-0.2,5.2-0.6
	c1-0.4,1.9-1,2.8-2C34.4,29.8,35.2,28.5,36,26.4"/>
<path fill="#000" d="M64.9,2.4v0.9c-1.1,0.2-1.6,0.6-2.2,1.1c-0.8,0.8-1.6,2-2.2,3.6L49.2,36h-1L36.2,7.7
	c-0.6-1.5-1.1-2.3-1.3-2.7c-0.4-0.5-0.9-0.9-1.5-1.2c-0.6-0.3-1-0.5-2-0.5V2.4h12.4v0.9c-1.5,0.1-2,0.4-2.4,0.8s-0.7,0.8-0.7,1.4
	c0,0.8,0.4,2.1,1.1,3.8L50,28.4l7.7-18.9c0.7-1.9,1.1-3.2,1.1-3.9c0-0.5-0.2-0.9-0.7-1.3c-0.5-0.4-1.4-0.7-2.5-0.9
	c-0.1,0-0.2,0-0.4-0.1V2.4H64.9L64.9,2.4z"/>
<path fill="#000" d="M85.2,35.1L72.9,7.9v21.6c0,2,0.2,3.2,0.7,3.7c0.6,0.7,1.3,1,2.6,1h1.2v0.9H65.9v-0.9h1.9
	c1.4,0,2.4-0.4,2.9-1.2c0.4-0.5,0.5-1.7,0.5-3.5V8c0-1.4-0.2-2.5-0.5-3.1c-0.2-0.5-0.6-0.8-1.2-1.2c-0.6-0.3-1.4-0.5-2.7-0.5V2.4
	h8.5L87,28L98.6,2.4h8.8v0.9h-1.1c-1.4,0-2.2,0.4-2.7,1.2C103.2,5,103,6.2,103,8v21.5c0,2,0.2,3.2,0.7,3.7c0.6,0.7,1.4,1,2.7,1h0.9
	v0.9H94.1v-0.9h1c1.4,0,2.4-0.4,2.9-1.2c0.4-0.5,0.5-1.7,0.5-3.5V7.6L86,35.1H85.2L85.2,35.1z"/>
<path fill="#000" d="M118,17.4h15.1V8.1c0-1.7-0.1-2.8-0.3-3.3c-0.2-0.4-0.5-0.7-1-1c-0.7-0.4-1.2-0.6-2-0.6h-1.1V2.4h13.3v0.9
	h-1.1c-0.8,0-1.3,0.2-1.9,0.6c-0.5,0.3-0.9,0.6-1,1.2c-0.2,0.5-0.3,1.6-0.3,3.2v21.2c0,1.7,0.1,2.7,0.3,3.3c0.2,0.4,0.5,0.7,1,1
	c0.7,0.4,1.3,0.6,2,0.6h1.1v0.9h-13.3v-0.9h1.1c1.3,0,2.1-0.4,2.7-1.2c0.4-0.5,0.6-1.7,0.6-3.7V19.2H118v10.2c0,1.7,0.1,2.7,0.3,3.3
	c0.2,0.4,0.5,0.7,1,1c0.7,0.4,1.2,0.6,2,0.6h1.2v0.9h-13.1v-0.9h1.1c1.3,0,1.9-0.4,2.6-1.2c0.4-0.5,0.6-1.7,0.6-3.7V8.1
	c0-1.7-0.1-2.8-0.3-3.3c-0.2-0.4-0.5-0.7-1-1c-0.7-0.4-1.2-0.6-2-0.6h-1.1V2.4h13.2v0.9h-1.2c-0.8,0-1.3,0.2-1.9,0.6
	c-0.5,0.3-0.8,0.6-1,1.2c-0.2,0.5-0.3,1.6-0.3,3.2L118,17.4L118,17.4z"/>
</svg>
