<?xml version="1.0" encoding="utf-8"?>
<!-- Generator: Adobe Illustrator 19.2.0, SVG Export Plug-In . SVG Version: 6.00 Build 0)  -->
<svg version="1.1" id="Calque_1" xmlns="http://www.w3.org/2000/svg" xmlns:xlink="http://www.w3.org/1999/xlink" x="0px" y="0px"
	 viewBox="0 0 81 41" style="enable-background:new 0 0 81 41;" xml:space="preserve">
<style type="text/css">
	.st0{fill:#1D1D1B;}
</style>
<g>
	<g>
		<path class="st0" d="M20,6.5c-2.6,0-5,1.2-6.2,3.2c-1.7-2.2-3.6-3.2-6.2-3.2c-2,0-3.5,0.6-4.6,1.9V6.9H0v18.8h3.1V14.6
			c0-3.4,1.7-5.4,4.6-5.4c2.7,0,4.7,2.3,4.7,5.4v11.1h3V14.9c0-1.3,0.1-2.4,0.4-3c0.7-1.6,2.4-2.7,4.2-2.7c2.8,0,4.7,2.3,4.7,5.7
			v10.9h3V14.6C27.6,10,24.3,6.5,20,6.5"/>
		<path class="st0" d="M64.6,14.8c0.7-3.3,3.4-5.6,6.6-5.6c3.1,0,5.7,2.2,6.6,5.6H64.6z M77.6,19.9c-1.1,2.1-3.6,3.6-6.1,3.6
			c-3.5,0-6.7-2.7-7-5.9H81l0-0.3c-0.1-2.3-0.2-3-0.7-4.3c-1.4-3.8-5.1-6.4-9.2-6.4c-5.4,0-9.8,4.4-9.8,9.9c0,5.4,4.6,9.8,10.2,9.8
			c3.7,0,7.2-2,8.9-5.2l0.2-0.3l-2.9-1.1L77.6,19.9z"/>
		<path class="st0" d="M40.6,9.2c3.8,0,6.8,3.2,6.8,7.2c0,3.9-3.1,7.1-6.9,7.1c-3.9,0-7.1-3.3-7.1-7.1C33.5,12.5,36.7,9.2,40.6,9.2
			 M47.5,9.5c-1.7-2-4-3-6.8-3c-5.7,0-10.1,4.3-10.1,9.8c0,2.7,1,5.1,3,7c1.9,1.9,4.4,2.9,7.1,2.9c2.8,0,5.1-1,6.8-3v2.6h3V6.9h-3
			V9.5z"/>
	</g>
	<rect x="55.1" y="0.5" class="st0" width="3" height="3.6"/>
	<g>
		<path class="st0" d="M55.1,23.4c0,3.5-0.9,4.8-3.4,5l-0.3,0v3l0.3,0c1.4,0,2-0.2,3-0.7c0.9-0.5,1.7-1.2,2.2-1.9
			c0.9-1.4,1.2-2.4,1.2-5.3V6.9h-3V23.4z"/>
		<g>
			<path class="st0" d="M32.5,36.4c0-0.1,0-0.1,0.1-0.1h1.4c0.8,0,1.4,0.6,1.4,1.4c0,0.8-0.6,1.4-1.4,1.4h-1v1.4
				c0,0.1-0.1,0.1-0.1,0.1h-0.2c-0.1,0-0.1-0.1-0.1-0.1V36.4z M33.9,38.6c0.5,0,0.9-0.4,0.9-0.9c0-0.5-0.4-0.9-0.9-0.9h-1v1.8H33.9z
				"/>
			<path class="st0" d="M35.5,40.5l1.9-4.1c0,0,0-0.1,0.1-0.1h0.1c0.1,0,0.1,0,0.1,0.1l1.9,4.1c0,0.1,0,0.2-0.1,0.2h-0.2
				c-0.1,0-0.1,0-0.1-0.1l-0.5-1h-2.2l-0.4,1c0,0,0,0.1-0.1,0.1h-0.2C35.5,40.6,35.4,40.6,35.5,40.5z M38.4,39.2
				c-0.3-0.7-0.6-1.3-0.9-2h0l-0.9,2H38.4z"/>
			<path class="st0" d="M40.3,36.4c0-0.1,0-0.1,0.1-0.1H42c0.7,0,1.3,0.6,1.3,1.3c0,0.6-0.4,1-0.9,1.3l0.8,1.6c0,0.1,0,0.2-0.1,0.2
				h-0.3c-0.1,0-0.1,0-0.1-0.1l-0.8-1.6h-1.2v1.6c0,0.1-0.1,0.1-0.1,0.1h-0.2c-0.1,0-0.1-0.1-0.1-0.1V36.4z M42,38.5
				c0.5,0,0.9-0.4,0.9-0.9c0-0.5-0.4-0.9-0.9-0.9h-1.2v1.8H42z"/>
			<path class="st0" d="M44.5,36.4c0-0.1,0.1-0.1,0.1-0.1h0.2c0.1,0,0.1,0.1,0.1,0.1v4.1c0,0.1-0.1,0.1-0.1,0.1h-0.2
				c-0.1,0-0.1-0.1-0.1-0.1V36.4z"/>
			<path class="st0" d="M46,40c0,0,0.1-0.1,0.1-0.1c0.1-0.1,0.1-0.1,0.2-0.1c0,0,0.5,0.5,1,0.5c0.5,0,0.8-0.3,0.8-0.7
				c0-0.4-0.4-0.7-1.1-1c-0.7-0.3-1.1-0.6-1.1-1.3c0-0.4,0.3-1.1,1.3-1.1c0.6,0,1.1,0.3,1.1,0.3c0,0,0.1,0.1,0,0.2
				c0,0,0,0.1-0.1,0.1C48.3,37,48.3,37,48.2,37c0,0-0.4-0.3-0.8-0.3c-0.7,0-0.9,0.4-0.9,0.7c0,0.4,0.3,0.7,0.8,0.9
				c0.8,0.3,1.4,0.7,1.4,1.4c0,0.6-0.6,1.1-1.3,1.1c-0.7,0-1.2-0.4-1.3-0.5C46,40.2,46,40.1,46,40z"/>
		</g>
	</g>
</g>
</svg>
