<svg enable-background="new 0 0 160 43" viewBox="0 0 160 43" xmlns="http://www.w3.org/2000/svg"><g fill="#12100b"><path d="m155.9 8.7c1 1.2 1.5 2.8 1.5 4.9 0 1.7-.3 2.8-.9 3.5s-1.3 1-2.2 1c-1.2 0-2.2-.6-2.9-1.9-.7-1.2-1.1-2.7-1.1-4.4 0-1.1.2-1.9.5-2.6s.7-1.1 1.2-1.4 1-.4 1.5-.4c.9.1 1.8.5 2.4 1.3m-5.1-1.3c-1 .5-1.7 1.3-2.3 2.4s-.9 2.1-.9 3.2c0 1.5.5 2.8 1.4 4 1.1 1.4 2.7 2.1 4.6 2.1 1.2 0 2.3-.3 3.2-.8 1-.5 1.7-1.4 2.3-2.4.6-1.1.8-2.1.8-3.2 0-1.5-.5-2.8-1.5-4-1.2-1.3-2.7-2-4.7-2-.9-.1-1.9.2-2.9.7m-26.8-.8-3.9 1.4.1.5c.4-.1.7-.2 1-.2.2 0 .4.1.6.2s.3.3.3.6c.1.3.1 1.1.1 2.4v4.5c0 .7 0 1.1-.1 1.2-.1.3-.3.5-.5.7-.3.2-.8.3-1.5.3v.5h6.6v-.5c-.6 0-1-.1-1.3-.2-.3-.2-.5-.3-.6-.6-.2-.3-.3-.8-.3-1.5v-5.6c.4-.8.9-1.4 1.3-1.7.2-.2.4-.3.5-.3.2 0 .5.1.9.4s.8.4 1.1.4.6-.1.9-.3c.2-.2.4-.5.4-.8 0-.4-.2-.7-.5-1s-.8-.4-1.3-.4c-1.1 0-2.2.9-3.3 2.6v-2.6zm-28.1 11c-1 0-1.9-.5-2.7-1.4s-1.2-2.2-1.2-4c0-1.7.4-3 1.3-3.9.6-.7 1.4-1 2.2-1 .4 0 .9.1 1.4.4.5.2.8.6 1.1 1.1s.4 1 .5 1.6v6c-.9.8-1.8 1.2-2.6 1.2m2.4 1.4h.7l3.8-1.4-.2-.4c-.4.1-.8.2-1 .2s-.4-.1-.5-.2c-.2-.1-.3-.3-.3-.6-.1-.3-.1-1.1-.1-2.5v-13.6h-.7l-3.8 1.4.2.4c.4-.1.7-.2 1-.2.2 0 .4.1.6.2.1.1.3.3.3.6.1.3.1 1.1.1 2.5v2.2c-.7-.7-1.7-1-2.8-1-1.8 0-3.3.7-4.5 2.1s-1.7 2.9-1.7 4.6.5 3.1 1.6 4.1c1 1.1 2.3 1.6 3.7 1.6.7 0 1.3-.1 1.9-.4s1.2-.7 1.8-1.3v1.7zm-36.8-12.4h-.6l-3.9 1.5.2.5c.4-.1.7-.2.9-.2s.4.1.6.2c.1.1.3.3.3.6.1.3.1 1.2.1 2.6v4.2c0 .9-.1 1.4-.3 1.7s-.7.5-1.3.5h-.3v.5h6.3v-.5c-.7 0-1.2-.1-1.4-.2s-.4-.3-.5-.5-.2-.7-.2-1.5v-6.1c1.1-1.1 2.2-1.7 3.3-1.7.7 0 1.2.2 1.5.7s.5 1.3.5 2.3v4.8c0 .7 0 1.1-.1 1.2-.1.3-.3.6-.5.7-.2.2-.7.2-1.3.2h-.3v.5h6.3v-.5c-.6 0-1-.1-1.3-.2-.2-.1-.4-.3-.5-.5-.1-.3-.2-.8-.2-1.5v-5c0-1.1-.1-1.8-.3-2.4-.3-.7-.7-1.3-1.2-1.6s-1.1-.5-1.8-.5c-1.4 0-2.8.8-4.3 2.5v-2.3zm-29.2 10.8c-.5 0-1-.2-1.4-.6s-.6-.9-.6-1.5c0-.5.2-.9.5-1.3s.8-.8 1.6-1.2c.4-.2 1.3-.6 2.7-1.1v4.5c-1.1.8-2.1 1.2-2.8 1.2m3.2 1.1c.3.3.6.4 1.1.4 1 0 1.9-.6 3-1.9v-.7c-.6.5-.9.8-1.1.9-.1.1-.2.1-.4.1-.1 0-.3 0-.4-.1s-.2-.3-.2-.5c0-.3-.1-.9-.1-2.1v-4c0-1.1-.1-1.9-.3-2.2-.3-.6-.7-1-1.2-1.2-.7-.3-1.7-.5-2.8-.5-1.5 0-2.6.3-3.5.9-.8.6-1.2 1.3-1.2 2 0 .4.1.7.3.9s.5.3.8.3c.4 0 .6-.1.9-.3.2-.2.3-.5.3-.9v-.7c0-.4.2-.7.5-1s.8-.4 1.4-.4c.8 0 1.4.2 1.8.7.4.4.6 1.2.6 2.4v.5c-2.2.7-3.8 1.4-4.7 1.9s-1.6 1.1-2 1.6c-.3.4-.4.9-.4 1.5 0 .9.3 1.6.9 2.2s1.3.8 2.2.8c.6 0 1.1-.1 1.6-.3.3-.1 1.2-.7 2.5-1.6 0 .5.2 1 .4 1.3m-28.2-11.9c-.1.2-.2.4-.3.4-.1.1-.2.1-.3.1-.2 0-.5-.1-1-.2-.7-.2-1.3-.3-1.8-.3-1.1 0-2.1.3-2.8 1-.7.6-1.1 1.4-1.1 2.4 0 .7.2 1.4.6 1.8.4.5 1.3 1 2.7 1.7 1.3.6 2.2 1.1 2.7 1.5s.7.9.7 1.5c0 .5-.2.9-.6 1.2s-.9.5-1.6.5c-.9 0-1.7-.3-2.5-.9-.7-.6-1.2-1.5-1.5-2.7h-.4v4.2h.5c.1-.2.3-.3.5-.3s.4 0 .8.1c1 .3 1.9.4 2.7.4 1.1 0 2.1-.3 3-1s1.3-1.5 1.3-2.6c0-1.4-.9-2.5-2.8-3.3l-2-.9c-.9-.4-1.5-.8-1.8-1.1-.5-.3-.6-.7-.6-1.2 0-.4.2-.7.6-1s.9-.5 1.6-.5c.9 0 1.6.2 2.1.7.6.5 1 1.3 1.4 2.6h.5v-4h-.6z"/><path d="m94.4 36.6c0 .1-.1.2-.1.3 0 0-.1.1-.2.1s-.2 0-.3-.1c-.3-.1-.7-.2-.9-.2-.5 0-.9.1-1.2.4s-.5.6-.5 1c0 .2.1.4.2.6s.3.4.5.5c.2.2.5.4 1 .6.5.3.8.4.9.5.2.1.3.3.4.4s.1.3.1.4c0 .2-.1.5-.3.6-.2.2-.5.3-.8.3s-.6-.1-.8-.2c-.3-.1-.4-.3-.6-.5-.1-.2-.2-.5-.3-.9h-.2v1.9h.2c0-.1 0-.2.1-.3 0 0 .1-.1.2-.1s.2 0 .5.1.4.1.5.2h.5c.5 0 .9-.2 1.3-.5.3-.3.5-.7.5-1.1 0-.2-.1-.4-.2-.6s-.3-.4-.4-.5c-.2-.1-.6-.4-1.1-.6-.6-.3-1.1-.6-1.2-.8-.1-.1-.2-.3-.2-.5s.1-.4.3-.6.4-.3.7-.3.5.1.7.2.4.3.5.5.2.5.3.9h.2v-1.9h-.3zm-5.9 5.6c-.1 0-.3 0-.4-.1-.1 0-.1-.1-.2-.2 0-.1-.1-.3-.1-.6v-3.6c0-.3 0-.5.1-.6s.3-.2.5-.2h.2v-.2h-2.4v.2h.2c.1 0 .3 0 .4.1.1 0 .1.1.2.2 0 .1.1.3.1.6v3.6c0 .3 0 .5-.1.6s-.3.2-.5.2h-.2v.2h2.4v-.2zm-8-5c.3-.1.5-.1.7-.1.4 0 .7.1.9.3s.3.5.3.9-.1.7-.4.9-.7.3-1.2.3h-.1-.1v-2.3zm4 5c-.3 0-.6-.1-.7-.2-.2-.1-.4-.4-.7-.7l-1.2-1.6c.5-.1.8-.3 1-.5.2-.3.3-.6.3-.9s-.1-.6-.3-.8-.4-.4-.7-.5-.7-.1-1.3-.1h-2v.2h.2c.2 0 .4.1.5.2s.1.3.1.7v3.6c0 .3 0 .5-.1.6-.1.2-.3.2-.5.2h-.2v.2h2.4v-.2h-.2c-.2 0-.4-.1-.5-.2s-.1-.3-.1-.7v-1.6h.1.1.3l1.9 2.6h1.5v-.3zm-11.7-2 1-2.3 1 2.3zm2.4 1.1c.1.3.2.5.2.6s0 .2-.1.2c-.1.1-.2.1-.5.1v.2h2.2v-.2c-.2 0-.4-.1-.5-.2s-.3-.4-.4-.7l-2-4.7h-.1l-2 4.6c-.2.4-.3.7-.5.8-.1.1-.2.1-.5.2v.2h1.8v-.2c-.3 0-.4-.1-.5-.1-.1-.1-.1-.1-.1-.2s0-.3.1-.5l.4-.9h2.2zm-8.2-4.1c.2-.1.4-.1.5-.1.2 0 .4.1.6.2s.3.3.4.5.1.4.1.7c0 .4-.1.6-.3.9-.2.2-.5.3-.7.3-.1 0-.2 0-.3 0s-.2 0-.4-.1v-2.4zm.5 2.6h.4c.6 0 1-.1 1.3-.4s.5-.7.5-1.1c0-.3-.1-.6-.3-.9-.2-.2-.4-.4-.7-.5s-.7-.2-1.2-.2h-2.1v.2h.2c.2 0 .4.1.5.2s.1.3.1.7v3.6c0 .3 0 .5-.1.6-.1.2-.3.2-.5.2h-.2v.2h2.4v-.2h-.2c-.2 0-.4-.1-.5-.2 0 0-.1-.3-.1-.6v-1.6z"/></g></svg>