<svg xmlns="http://www.w3.org/2000/svg" width="170" height="21.1" viewBox="0 0 170 21.1">
<g>
<path d="M10.5,5.8L9.2,8.3C7.7,7.5,6.4,7.1,5.4,7.1c-0.7,0-1.2,0.3-1.2,0.8c0,1.7,6.4,0.9,6.4,5.1c0,2.5-2.2,3.9-5.1,3.9c-2,0-4-0.6-5.4-1.7l1.2-2.5c1.4,1,2.9,1.5,4.3,1.5c0.8,0,1.3-0.3,1.3-0.8c0-1.8-6.3-0.9-6.3-5.1c0-2.5,2.1-3.8,4.9-3.8C7.3,4.4,9,4.9,10.5,5.8z"></path>
<path d="M25.2,9v7.7h-3.9v-6.6c0-1.4-0.8-2.3-2.1-2.3c-1.5,0-2.5,1.2-2.5,2.9v6h-3.9V0h3.9v6.6c0.9-1.4,2.3-2.2,4.1-2.2C23.5,4.4,25.2,6.2,25.2,9z"></path>
<path d="M40.2,10.6c0,3.7-2.7,6.2-6.6,6.2c-4,0-6.6-2.5-6.6-6.2s2.7-6.2,6.6-6.2C37.6,4.4,40.2,6.9,40.2,10.6zM30.9,10.7c0,1.9,1.1,3.2,2.7,3.2c1.6,0,2.7-1.3,2.7-3.2c0-1.9-1.1-3.2-2.7-3.2C32,7.5,30.9,8.8,30.9,10.7z"></path>
<path d="M55.6,10.7c0,3.7-2.2,6.1-5.6,6.1c-1.6,0-2.9-0.6-3.7-1.8v6h-3.9V4.6h3.9v1.6c0.9-1.1,2.1-1.7,3.6-1.7C53.4,4.4,55.6,6.9,55.6,10.7z M51.7,10.6c0-1.8-1.1-3.2-2.7-3.2c-1.6,0-2.7,1.3-2.7,3.2c0,1.9,1.1,3.2,2.7,3.2C50.6,13.7,51.7,12.4,51.7,10.6z"></path>
<path d="M67.1,5.8l-1.3,2.5c-1.5-0.8-2.8-1.2-3.8-1.2c-0.7,0-1.2,0.3-1.2,0.8c0,1.7,6.4,0.9,6.4,5.1c0,2.5-2.2,3.9-5.1,3.9c-2,0-4-0.6-5.4-1.7l1.2-2.5c1.4,1,2.9,1.5,4.3,1.5c0.8,0,1.3-0.3,1.3-0.8c0-1.8-6.3-0.9-6.3-5.1c0-2.5,2.1-3.8,4.9-3.8C63.8,4.4,65.6,4.9,67.1,5.8z"></path>
<path d="M81.5,21.1h-3.9v-6c-0.9,1.1-2.1,1.8-3.6,1.8c-3.4,0-5.7-2.5-5.7-6.3c0-3.7,2.2-6.2,5.6-6.2c1.6,0,2.9,0.6,3.7,1.8V4.6h3.9V21.1z M77.6,10.7c0-1.9-1.1-3.2-2.7-3.2s-2.7,1.3-2.7,3.2c0,1.9,1.1,3.2,2.7,3.2S77.6,12.5,77.6,10.7z"></path>
<path d="M96.5,16.7h-3.9v-2c-0.8,1.4-2.2,2.2-3.9,2.2c-2.6,0-4.3-1.8-4.3-4.6V4.6h3.9v6.5c0,1.4,0.8,2.3,2,2.3c1.5,0,2.4-1.2,2.4-2.9v-6h3.9V16.7z"></path>
<path d="M110.4,8.8v7.9h-3.8v-1.4c-0.8,1-2.1,1.6-3.7,1.6c-2.6,0-4.2-1.6-4.2-3.8c0-2.3,1.6-3.6,4.7-3.7h3.2V9.2c0-1.2-0.8-1.9-2.4-1.9c-1,0-2.3,0.4-3.6,1l-1.1-2.6c1.9-0.9,3.6-1.4,5.6-1.4C108.4,4.4,110.4,6,110.4,8.8z M106.6,12.6v-1.1h-2.5c-1.2,0-1.8,0.4-1.8,1.3c0,0.9,0.6,1.4,1.7,1.4C105.3,14.2,106.3,13.6,106.6,12.6z"></path>
<path d="M117,6.6c0.8-1.4,2.2-2.2,3.9-2.2v3.5c-2.3-0.2-3.7,0.9-3.9,2.6v6.2h-3.9V4.6h3.9V6.6z"></path>
<path d="M134.2,11.7h-8.5c0.4,1.4,1.4,2.3,2.9,2.3c1.1,0,2.1-0.4,2.9-1.2l2,2c-1.2,1.4-3.1,2.1-5.3,2.1c-4,0-6.4-2.5-6.4-6.2c0-3.8,2.6-6.2,6.3-6.2C132.3,4.4,134.5,7.2,134.2,11.7z M130.5,9.6c0-1.5-0.9-2.5-2.3-2.5c-1.4,0-2.3,1-2.5,2.5H130.5z"></path>
</g>
<g>
<path d="M169.9,16.7h-28.9V3.1h28.9V16.7z M142.2,15.6h26.7V4.2h-26.7V15.6z"></path>
<path d="M152.6,12.2c0,0.5-0.3,0.8-0.8,0.8s-0.8-0.3-0.8-0.8c0-0.4,0.3-0.8,0.8-0.8S152.6,11.8,152.6,12.2z"></path>
<path d="M155.4,7.9v0.4h1.1v1h-1.1v3.6h-1.6V9.3h-0.7v-1h0.7V7.8c0-1.1,0.8-1.7,1.9-1.7c0.5,0,1,0.1,1.4,0.3l-0.6,1.1c-0.2-0.1-0.4-0.2-0.6-0.2C155.6,7.3,155.4,7.5,155.4,7.9z"></path>
<path d="M158.6,8.9c0.3-0.6,0.9-0.9,1.6-0.9v1.4c-0.9-0.1-1.5,0.3-1.6,1v2.5H157V8h1.6V8.9z"></path>
</g>
</svg>