<svg enable-background="new 0 0 288.5 57.8" viewBox="0 0 288.5 57.8" xmlns="http://www.w3.org/2000/svg"><path d="m0 .9h22.5v5.8h-7.6v23.4h-7.3v-23.4h-7.6z"/><path d="m51 .9v29.2h-7.3v-12.4h-10.7v12.4h-7.4v-29.2h7.4v10.5h10.7v-10.5z"/><path d="m55.3.9h21.6v5.7h-14.3v5.3h13.3v5.5h-13.3v6.9h15.6v5.7h-22.9z"/><path d="m93.7.9h6.9v11.9l10.9-11.9h8.8l-10.3 10.8 11.1 18.4h-8.2l-7.8-13.2-4.5 4.7v8.6h-6.9z"/><path d="m135.3 30.9c-9.3 0-14.5-7.1-14.5-15.5 0-7.9 5-15.4 14.4-15.4 1.7 0 3.6.2 5.3.9 8.9 3.1 9.5 12.8 9.5 14.8 0 5-2.3 9.6-5.5 12.2-2.9 2.3-6.2 3-9.2 3zm5-22.6c-1.2-1.3-3.1-2.1-5.1-2.1-4.4 0-7.2 3.9-7.2 9.2 0 6.9 3.9 9.5 7.3 9.5 3.5 0 7.2-2.5 7.4-8.6.1-3.2-.8-6.3-2.4-8z"/><path d="m167.8 30.9c-9.3 0-14.5-7.1-14.5-15.5 0-7.9 5-15.4 14.4-15.4 1.7 0 3.6.2 5.3.9 8.9 3.1 9.5 12.8 9.5 14.8 0 5-2.3 9.6-5.5 12.2-2.9 2.3-6.2 3-9.2 3zm5-22.6c-1.2-1.3-3.1-2.1-5.1-2.1-4.4 0-7.2 3.9-7.2 9.2 0 6.9 3.9 9.5 7.3 9.5 3.5 0 7.2-2.5 7.4-8.6.1-3.2-.7-6.3-2.4-8z"/><path d="m186.3.9h11.7c4.8 0 9 0 11.6 3.7 1.1 1.7 1.7 4 1.7 6 0 1.6-.3 3.2-1 4.5-2.5 5.2-7.9 5.3-11.9 5.4h-4.8v9.5h-7.3zm7.3 5.4v8.9h4.4c2.7 0 6-.1 6-4.6 0-4.3-3.7-4.3-5.8-4.3z"/><path d="m214.8.9h7.3v23h11.4v6.2h-18.7z"/><path d="m236.9.9h21.6v5.7h-14.4v5.3h13.3v5.5h-13.3v6.9h15.6v5.7h-22.8z"/><path d="m267.6 21.4c.7.8 1.4 1.5 2.8 2.3 1.9 1 3.9 1.4 5.6 1.4 2.9 0 5.4-1.4 5.4-3.4 0-2.3-2.9-2.7-5.1-3-1.6-.2-3.2-.4-4.8-.7-1.8-.4-7.8-1.7-7.8-7.9 0-7.5 6.7-9.7 11.7-9.7 6.7 0 10.4 3.3 12.9 5.5l-5.4 3.8c-.9-.9-1.7-1.7-2.9-2.4-1-.6-2.9-1.3-4.8-1.3-2.9 0-4.3 1.7-4.3 3.1 0 2.2 2.5 2.6 3.7 2.7 3.1.4 7.3 1.2 8.9 1.7 3.3 1.2 5 3.8 5 7.1 0 2.1-.8 4.4-2.3 6.2-2.6 3.1-6.9 3.9-10.9 3.9-8.2 0-11.5-3.8-13.3-5.9z"/><path d="m110.1 45.1h5c2 0 3.9 0 5 1.6.5.7.7 1.7.7 2.6 0 .7-.1 1.4-.4 1.9-1.1 2.2-3.4 2.3-5.1 2.3h-2.1v4.1h-3.1zm3.2 2.3v3.8h1.9c1.2 0 2.6 0 2.6-2 0-1.8-1.6-1.8-2.5-1.8z"/><path d="m132.6 45.1 4.6 12.4h-3.3l-.6-2h-4.6l-.6 2h-3.3l4.6-12.4zm-1.7 2.9c-.2.6-.3 1.3-.5 1.9-.3.9-.7 2.4-1 3.3h3.2z"/><path d="m142.9 45.1h5.6c1.3 0 2.9 0 4.1 1.3.6.7 1 1.6 1 2.8 0 2.5-1.7 3.1-2.6 3.4l2.9 5h-3.4l-2.5-4.4h-2v4.4h-3.1zm3.1 2.3v3.4h2.6c.4 0 1.9-.1 1.9-1.7s-1.1-1.6-1.8-1.7z"/><path d="m163 45.1v12.4h-3.1v-12.4z"/><path d="m171.2 53.8c.3.4.6.6 1.2 1 .8.4 1.7.6 2.4.6 1.2 0 2.3-.6 2.3-1.4 0-1-1.3-1.1-2.2-1.3-.7-.1-1.4-.2-2-.3-.8-.2-3.3-.7-3.3-3.4 0-3.2 2.9-4.2 5-4.2 2.9 0 4.4 1.4 5.5 2.4l-2.3 1.6c-.4-.4-.7-.7-1.2-1-.4-.2-1.2-.5-2-.5-1.2 0-1.9.7-1.9 1.3 0 1 1.1 1.1 1.6 1.2 1.3.2 3.1.5 3.8.7 1.4.5 2.1 1.6 2.1 3 0 .9-.3 1.9-1 2.6-1.1 1.3-2.9 1.7-4.7 1.7-3.5 0-4.9-1.6-5.7-2.5z"/></svg>